<svg id="Layer_1" data-name="Layer 1" xmlns="http://www.w3.org/2000/svg" viewBox="0 0 138.97 93.07">
  <defs>
    <style>
      .cls-1{fill:#fff}
    </style>
  </defs>
  <path class="cls-1" d="M91.47 65.59l-5.16-8.96h-33.5l-5.16 8.96h32.96L91.3 84.11H36.97l-5.17 8.96h75.51l-5.16-8.96-10.68-18.52zM123.12 65.59l-5.16-8.96-11.68-20.25-5.16-8.96L85.31 0l-5.4 9.36 10.41 18.06 5.16 8.96 11.68 20.25 5.16 8.96 15.85 27.48h10.8l-15.85-27.48zM73.48 34.37l-4.01-6.95-4.5-7.79-5.92-10.27L53.66 0 37.85 27.42l-5.17 8.96-11.67 20.25-5.16 8.96L0 93.07h10.8l15.84-27.48 5.16-8.96 11.68-20.25 5.16-8.96h.06l4.96-8.59.46.8 4.49 7.79 4.01 6.95.82 1.43H74.3l-.82-1.43z"/>
</svg>
